<mxfile host="app.diagrams.net" modified="2023-07-05T11:23:30.418Z" agent="Mozilla/5.0 (Windows NT 10.0; Win64; x64; rv:109.0) Gecko/20100101 Firefox/114.0" etag="3StBva9EysWsyEbl-VRe" version="21.5.2" type="github">
  <diagram name="Страница 1" id="B03sfNhwtqYUe3YR9xNH">
    <mxGraphModel dx="2062" dy="634" grid="1" gridSize="10" guides="1" tooltips="1" connect="1" arrows="1" fold="1" page="1" pageScale="1" pageWidth="827" pageHeight="1169" math="0" shadow="0">
      <root>
        <mxCell id="0" />
        <mxCell id="1" parent="0" />
        <mxCell id="8p_NZD7iF2NSDvRrFACn-4" value="Телефон / часы" style="rounded=0;whiteSpace=wrap;html=1;align=center;verticalAlign=top;dashed=1;" parent="1" vertex="1">
          <mxGeometry x="544" y="60" width="140" height="200" as="geometry" />
        </mxCell>
        <mxCell id="8p_NZD7iF2NSDvRrFACn-6" value="Гироскоп" style="rounded=0;whiteSpace=wrap;html=1;" parent="1" vertex="1">
          <mxGeometry x="554" y="140" width="120" height="30" as="geometry" />
        </mxCell>
        <mxCell id="8p_NZD7iF2NSDvRrFACn-7" value="Акселерометр" style="rounded=0;whiteSpace=wrap;html=1;" parent="1" vertex="1">
          <mxGeometry x="554" y="100" width="120" height="30" as="geometry" />
        </mxCell>
        <mxCell id="8p_NZD7iF2NSDvRrFACn-8" value="GPS" style="rounded=0;whiteSpace=wrap;html=1;" parent="1" vertex="1">
          <mxGeometry x="554" y="180" width="120" height="30" as="geometry" />
        </mxCell>
        <mxCell id="8p_NZD7iF2NSDvRrFACn-9" value="Датчики реального времени" style="rounded=0;whiteSpace=wrap;html=1;rotation=-90;fillColor=#dae8fc;strokeColor=#6c8ebf;" parent="1" vertex="1">
          <mxGeometry x="419" y="145" width="200" height="30" as="geometry" />
        </mxCell>
        <mxCell id="8p_NZD7iF2NSDvRrFACn-10" value="Акселерометр" style="rounded=0;whiteSpace=wrap;html=1;" parent="1" vertex="1">
          <mxGeometry x="704" y="100" width="120" height="30" as="geometry" />
        </mxCell>
        <mxCell id="8p_NZD7iF2NSDvRrFACn-11" value="Пульсометр" style="rounded=0;whiteSpace=wrap;html=1;" parent="1" vertex="1">
          <mxGeometry x="704" y="140" width="120" height="30" as="geometry" />
        </mxCell>
        <mxCell id="8p_NZD7iF2NSDvRrFACn-16" value="..." style="rounded=0;whiteSpace=wrap;html=1;" parent="1" vertex="1">
          <mxGeometry x="704" y="180" width="120" height="30" as="geometry" />
        </mxCell>
        <mxCell id="8p_NZD7iF2NSDvRrFACn-17" value="..." style="rounded=0;whiteSpace=wrap;html=1;" parent="1" vertex="1">
          <mxGeometry x="554" y="220" width="120" height="30" as="geometry" />
        </mxCell>
        <mxCell id="8p_NZD7iF2NSDvRrFACn-18" value="Телефон / часы" style="rounded=0;whiteSpace=wrap;html=1;align=center;verticalAlign=top;dashed=1;" parent="1" vertex="1">
          <mxGeometry x="117" y="60" width="340" height="200" as="geometry" />
        </mxCell>
        <mxCell id="8p_NZD7iF2NSDvRrFACn-20" value="" style="shape=flexArrow;endArrow=classic;html=1;rounded=0;endWidth=36;endSize=6;width=32;fillColor=#f5f5f5;strokeColor=#666666;" parent="1" edge="1">
          <mxGeometry width="50" height="50" relative="1" as="geometry">
            <mxPoint x="497" y="159.5" as="sourcePoint" />
            <mxPoint x="467" y="159.5" as="targetPoint" />
          </mxGeometry>
        </mxCell>
        <mxCell id="8p_NZD7iF2NSDvRrFACn-21" value="Тренировка" style="rounded=0;whiteSpace=wrap;html=1;rotation=0;fillColor=#dae8fc;strokeColor=#6c8ebf;" parent="1" vertex="1">
          <mxGeometry x="247" y="310" width="120" height="30" as="geometry" />
        </mxCell>
        <mxCell id="8p_NZD7iF2NSDvRrFACn-27" style="edgeStyle=orthogonalEdgeStyle;rounded=0;orthogonalLoop=1;jettySize=auto;html=1;" parent="1" source="8p_NZD7iF2NSDvRrFACn-22" target="8p_NZD7iF2NSDvRrFACn-23" edge="1">
          <mxGeometry relative="1" as="geometry" />
        </mxCell>
        <mxCell id="8p_NZD7iF2NSDvRrFACn-22" value="Анализ датчиков реального времени" style="rounded=0;whiteSpace=wrap;html=1;" parent="1" vertex="1">
          <mxGeometry x="377" y="100" width="70" height="140" as="geometry" />
        </mxCell>
        <mxCell id="8p_NZD7iF2NSDvRrFACn-23" value="&lt;div&gt;Прохождение программы&lt;/div&gt;&lt;div&gt;тренировки&lt;/div&gt;" style="rounded=0;whiteSpace=wrap;html=1;" parent="1" vertex="1">
          <mxGeometry x="257" y="100" width="100" height="140" as="geometry" />
        </mxCell>
        <mxCell id="8p_NZD7iF2NSDvRrFACn-24" value="База знаний" style="rounded=0;whiteSpace=wrap;html=1;" parent="1" vertex="1">
          <mxGeometry x="411" y="390" width="120" height="30" as="geometry" />
        </mxCell>
        <mxCell id="8p_NZD7iF2NSDvRrFACn-25" value="Тренировки" style="rounded=0;whiteSpace=wrap;html=1;" parent="1" vertex="1">
          <mxGeometry x="247" y="350" width="120" height="30" as="geometry" />
        </mxCell>
        <mxCell id="8p_NZD7iF2NSDvRrFACn-26" value="Упражнения" style="rounded=0;whiteSpace=wrap;html=1;" parent="1" vertex="1">
          <mxGeometry x="277" y="390" width="120" height="30" as="geometry" />
        </mxCell>
        <mxCell id="8p_NZD7iF2NSDvRrFACn-28" value="Наушники" style="rounded=0;whiteSpace=wrap;html=1;" parent="1" vertex="1">
          <mxGeometry x="-153" y="110" width="230" height="30" as="geometry" />
        </mxCell>
        <mxCell id="8p_NZD7iF2NSDvRrFACn-29" value="Микрофон" style="rounded=0;whiteSpace=wrap;html=1;" parent="1" vertex="1">
          <mxGeometry x="-153" y="150" width="230" height="30" as="geometry" />
        </mxCell>
        <mxCell id="8p_NZD7iF2NSDvRrFACn-30" value="Человек" style="shape=umlActor;verticalLabelPosition=bottom;verticalAlign=top;html=1;outlineConnect=0;" parent="1" vertex="1">
          <mxGeometry x="-233" y="140" width="30" height="60" as="geometry" />
        </mxCell>
        <mxCell id="8p_NZD7iF2NSDvRrFACn-35" value="" style="shape=flexArrow;endArrow=classic;html=1;rounded=0;endWidth=17;endSize=3.47;width=15;fillColor=#f5f5f5;strokeColor=#666666;" parent="1" edge="1">
          <mxGeometry width="50" height="50" relative="1" as="geometry">
            <mxPoint x="107" y="125" as="sourcePoint" />
            <mxPoint x="87" y="124.5" as="targetPoint" />
          </mxGeometry>
        </mxCell>
        <mxCell id="8p_NZD7iF2NSDvRrFACn-36" value="" style="shape=flexArrow;endArrow=classic;html=1;rounded=0;endWidth=17;endSize=3.47;width=15;fillColor=#f5f5f5;strokeColor=#666666;" parent="1" edge="1">
          <mxGeometry width="50" height="50" relative="1" as="geometry">
            <mxPoint x="87" y="169" as="sourcePoint" />
            <mxPoint x="107" y="169" as="targetPoint" />
          </mxGeometry>
        </mxCell>
        <mxCell id="8p_NZD7iF2NSDvRrFACn-38" value="" style="shape=flexArrow;endArrow=classic;html=1;rounded=0;endWidth=36;endSize=6;width=32;fillColor=#f5f5f5;strokeColor=#666666;" parent="1" edge="1">
          <mxGeometry width="50" height="50" relative="1" as="geometry">
            <mxPoint x="306.5" y="300" as="sourcePoint" />
            <mxPoint x="306.5" y="270" as="targetPoint" />
          </mxGeometry>
        </mxCell>
        <mxCell id="8p_NZD7iF2NSDvRrFACn-41" value="ИИ" style="rounded=0;whiteSpace=wrap;html=1;" parent="1" vertex="1">
          <mxGeometry x="277" y="430" width="120" height="30" as="geometry" />
        </mxCell>
        <mxCell id="8p_NZD7iF2NSDvRrFACn-42" value="Машина вывода" style="rounded=0;whiteSpace=wrap;html=1;" parent="1" vertex="1">
          <mxGeometry x="411" y="430" width="120" height="30" as="geometry" />
        </mxCell>
        <mxCell id="sW8gBYHSpLRF_y8T_Ev4-1" value="Телефон" style="rounded=0;whiteSpace=wrap;html=1;" vertex="1" parent="1">
          <mxGeometry x="-33" y="190" width="110" height="70" as="geometry" />
        </mxCell>
        <mxCell id="sW8gBYHSpLRF_y8T_Ev4-2" value="Вибромотор" style="rounded=0;whiteSpace=wrap;html=1;" vertex="1" parent="1">
          <mxGeometry x="-153" y="230" width="110" height="30" as="geometry" />
        </mxCell>
        <mxCell id="sW8gBYHSpLRF_y8T_Ev4-3" value="Экран" style="rounded=0;whiteSpace=wrap;html=1;" vertex="1" parent="1">
          <mxGeometry x="-153" y="190" width="110" height="30" as="geometry" />
        </mxCell>
        <mxCell id="sW8gBYHSpLRF_y8T_Ev4-5" value="&#xa;Поддержка отложенной передачи данных&#xa;&#xa;" style="rounded=0;whiteSpace=wrap;html=1;strokeColor=#b85450;fillColor=#f8cecc;" vertex="1" parent="1">
          <mxGeometry x="507" y="20" width="320" height="30" as="geometry" />
        </mxCell>
      </root>
    </mxGraphModel>
  </diagram>
</mxfile>
